<svg width="100" height="100" viewBox="0 0 100 100" fill="none" xmlns="http://www.w3.org/2000/svg">
<g id="logo-l">
<circle id="Ellipse 6" cx="50" cy="50" r="49.5" fill="white" stroke="#0D6EFD"/>
<path id="Vector" d="M74.5677 25.4119C70.8228 27.7524 70.4717 28.5716 67.1949 42.4979C65.6736 49.4025 63.8011 52.2112 62.3968 49.8707C61.8116 49.0515 61.3435 47.296 61.3435 45.8917C61.3435 44.6044 59.8222 41.2106 57.9497 38.2849C54.2048 32.1995 46.481 27.8695 39.6934 27.8695C29.8631 27.8695 20.5009 36.7636 17.9263 48.4663C16.639 54.2007 16.1709 54.7858 13.3622 54.7858C11.6068 54.7858 8.79813 53.7326 7.04272 52.3282L4 49.9877V53.2645C4.11703 58.6477 8.91516 62.9777 15.0006 62.9777C19.0966 62.9777 19.5647 64.3821 17.9263 71.7548C16.1709 79.8297 16.9901 81 25.182 81C32.4377 81 33.491 79.7127 32.4377 71.5208L31.7355 65.3183H40.5126H49.2897L48.3535 71.2867C47.0662 79.5957 47.6513 80.5319 54.79 80.5319C63.45 80.5319 64.0352 79.8297 63.099 71.0527C62.3968 63.6799 62.3968 63.4459 66.0246 60.1691C68.1311 58.2966 71.876 53.8496 74.3336 50.4558C78.5466 44.8385 79.3658 44.2533 83.4618 44.2533C86.2704 44.2533 89.0791 43.3171 91.1856 41.6787C93.9942 39.5722 94.3453 38.636 93.7602 34.54C92.4729 25.1778 82.5255 20.4967 74.5677 25.4119Z" fill="#0D6EFD"/>
</g>
</svg>
